HIERARCHY
ROOT Hips
{
  OFFSET -33.7502 12.8543 3.70592
  CHANNELS 6 Xposition Yposition Zposition Zrotation Xrotation Yrotation
  JOINT Spine
  {
    OFFSET 0 9.9235 -1.2273
    CHANNELS 6 Xposition Yposition Zposition Zrotation Xrotation Yrotation
    JOINT Spine1
    {
      OFFSET -0.0001 11.6454 -1.4223
      CHANNELS 6 Xposition Yposition Zposition Zrotation Xrotation Yrotation
      JOINT Spine2
      {
        OFFSET 0.0001 13.3602 -1.6265
        CHANNELS 6 Xposition Yposition Zposition Zrotation Xrotation Yrotation
        JOINT Neck
        {
          OFFSET 0 15.0325 0.7929
          CHANNELS 6 Xposition Yposition Zposition Zrotation Xrotation Yrotation
          JOINT Head
          {
            OFFSET 0 10.3218 3.1424
            CHANNELS 6 Xposition Yposition Zposition Zrotation Xrotation Yrotation
            End Site
            {
              OFFSET 0 0 0
            }
          }
        }
        JOINT LeftShoulder
        {
          OFFSET 6.1058 9.1104 0.7056
          CHANNELS 6 Xposition Yposition Zposition Zrotation Xrotation Yrotation
          JOINT LeftArm
          {
            OFFSET 12.655 -0.2659 -2.6009
            CHANNELS 6 Xposition Yposition Zposition Zrotation Xrotation Yrotation
            JOINT LeftForeArm
            {
              OFFSET 27.4047 0 0
              CHANNELS 6 Xposition Yposition Zposition Zrotation Xrotation Yrotation
              JOINT LeftHand
              {
                OFFSET 27.6145 0 0
                CHANNELS 6 Xposition Yposition Zposition Zrotation Xrotation Yrotation
                JOINT LeftHandMiddle1
                {
                  OFFSET 12.7755 0 0
                  CHANNELS 6 Xposition Yposition Zposition Zrotation Xrotation Yrotation
                  JOINT LeftHandMiddle2
                  {
                    OFFSET 3.614 0 0
                    CHANNELS 6 Xposition Yposition Zposition Zrotation Xrotation Yrotation
                    JOINT LeftHandMiddle3
                    {
                      OFFSET 3.4598 0 0
                      CHANNELS 6 Xposition Yposition Zposition Zrotation Xrotation Yrotation
                      End Site
                      {
                        OFFSET 3.6802 0 0
                      }
                    }
                  }
                }
                JOINT LeftHandThumb1
                {
                  OFFSET 3.7888 -2.167 3.0031
                  CHANNELS 6 Xposition Yposition Zposition Zrotation Xrotation Yrotation
                  JOINT LeftHandThumb2
                  {
                    OFFSET 3.6754 -2.122 2.122
                    CHANNELS 6 Xposition Yposition Zposition Zrotation Xrotation Yrotation
                    JOINT LeftHandThumb3
                    {
                      OFFSET 3.3944 -1.9597 1.9598
                      CHANNELS 6 Xposition Yposition Zposition Zrotation Xrotation Yrotation
                      End Site
                      {
                        OFFSET 2.6794 -1.5469 1.5469
                      }
                    }
                  }
                }
                JOINT LeftHandIndex1
                {
                  OFFSET 12.2666 -0.2317 2.8221
                  CHANNELS 6 Xposition Yposition Zposition Zrotation Xrotation Yrotation
                  JOINT LeftHandIndex2
                  {
                    OFFSET 3.892 0 0
                    CHANNELS 6 Xposition Yposition Zposition Zrotation Xrotation Yrotation
                    JOINT LeftHandIndex3
                    {
                      OFFSET 3.4152 0 0
                      CHANNELS 6 Xposition Yposition Zposition Zrotation Xrotation Yrotation
                      End Site
                      {
                        OFFSET 3.078 0 0
                      }
                    }
                  }
                }
                JOINT LeftHandRing1
                {
                  OFFSET 12.147 0.0099 -2.2166
                  CHANNELS 6 Xposition Yposition Zposition Zrotation Xrotation Yrotation
                  JOINT LeftHandRing2
                  {
                    OFFSET 3.6012 0 0
                    CHANNELS 6 Xposition Yposition Zposition Zrotation Xrotation Yrotation
                    JOINT LeftHandRing3
                    {
                      OFFSET 3.3073 0 0
                      CHANNELS 6 Xposition Yposition Zposition Zrotation Xrotation Yrotation
                      End Site
                      {
                        OFFSET 3.6601 0 0
                      }
                    }
                  }
                }
                JOINT LeftHandPinky1
                {
                  OFFSET 10.9082 -0.2264 -4.7258
                  CHANNELS 6 Xposition Yposition Zposition Zrotation Xrotation Yrotation
                  JOINT LeftHandPinky2
                  {
                    OFFSET 4.1367 0 0
                    CHANNELS 6 Xposition Yposition Zposition Zrotation Xrotation Yrotation
                    JOINT LeftHandPinky3
                    {
                      OFFSET 2.5948 0 0
                      CHANNELS 6 Xposition Yposition Zposition Zrotation Xrotation Yrotation
                      End Site
                      {
                        OFFSET 2.9239 0 0
                      }
                    }
                  }
                }
              }
            }
          }
        }
        JOINT RightShoulder
        {
          OFFSET -6.1057 9.1105 0.7056
          CHANNELS 6 Xposition Yposition Zposition Zrotation Xrotation Yrotation
          JOINT RightArm
          {
            OFFSET -12.655 -0.266 -2.6009
            CHANNELS 6 Xposition Yposition Zposition Zrotation Xrotation Yrotation
            JOINT RightForeArm
            {
              OFFSET -27.4047 0 0
              CHANNELS 6 Xposition Yposition Zposition Zrotation Xrotation Yrotation
              JOINT RightHand
              {
                OFFSET -27.6145 0 0
                CHANNELS 6 Xposition Yposition Zposition Zrotation Xrotation Yrotation
                JOINT RightHandMiddle1
                {
                  OFFSET -12.7755 0 0
                  CHANNELS 6 Xposition Yposition Zposition Zrotation Xrotation Yrotation
                  JOINT RightHandMiddle2
                  {
                    OFFSET -3.614 0 0
                    CHANNELS 6 Xposition Yposition Zposition Zrotation Xrotation Yrotation
                    JOINT RightHandMiddle3
                    {
                      OFFSET -3.4598 0 0
                      CHANNELS 6 Xposition Yposition Zposition Zrotation Xrotation Yrotation
                      End Site
                      {
                        OFFSET -3.6802 0 0
                      }
                    }
                  }
                }
                JOINT RightHandThumb1
                {
                  OFFSET -3.7888 -2.167 3.0031
                  CHANNELS 6 Xposition Yposition Zposition Zrotation Xrotation Yrotation
                  JOINT RightHandThumb2
                  {
                    OFFSET -3.6754 -2.122 2.122
                    CHANNELS 6 Xposition Yposition Zposition Zrotation Xrotation Yrotation
                    JOINT RightHandThumb3
                    {
                      OFFSET -3.3944 -1.9597 1.9598
                      CHANNELS 6 Xposition Yposition Zposition Zrotation Xrotation Yrotation
                      End Site
                      {
                        OFFSET -2.6794 -1.5469 1.5469
                      }
                    }
                  }
                }
                JOINT RightHandIndex1
                {
                  OFFSET -12.2666 -0.2317 2.8221
                  CHANNELS 6 Xposition Yposition Zposition Zrotation Xrotation Yrotation
                  JOINT RightHandIndex2
                  {
                    OFFSET -3.892 0 0
                    CHANNELS 6 Xposition Yposition Zposition Zrotation Xrotation Yrotation
                    JOINT RightHandIndex3
                    {
                      OFFSET -3.4152 0 0
                      CHANNELS 6 Xposition Yposition Zposition Zrotation Xrotation Yrotation
                      End Site
                      {
                        OFFSET -3.078 0 0
                      }
                    }
                  }
                }
                JOINT RightHandRing1
                {
                  OFFSET -12.147 0.0099 -2.2166
                  CHANNELS 6 Xposition Yposition Zposition Zrotation Xrotation Yrotation
                  JOINT RightHandRing2
                  {
                    OFFSET -3.6012 0 0
                    CHANNELS 6 Xposition Yposition Zposition Zrotation Xrotation Yrotation
                    JOINT RightHandRing3
                    {
                      OFFSET -3.3073 0 0
                      CHANNELS 6 Xposition Yposition Zposition Zrotation Xrotation Yrotation
                      End Site
                      {
                        OFFSET -3.6601 0 0
                      }
                    }
                  }
                }
                JOINT RightHandPinky1
                {
                  OFFSET -10.9082 -0.2264 -4.7258
                  CHANNELS 6 Xposition Yposition Zposition Zrotation Xrotation Yrotation
                  JOINT RightHandPinky2
                  {
                    OFFSET -4.1367 0 0
                    CHANNELS 6 Xposition Yposition Zposition Zrotation Xrotation Yrotation
                    JOINT RightHandPinky3
                    {
                      OFFSET -2.5948 0 0
                      CHANNELS 6 Xposition Yposition Zposition Zrotation Xrotation Yrotation
                      End Site
                      {
                        OFFSET -2.9239 0 0
                      }
                    }
                  }
                }
              }
            }
          }
        }
      }
    }
  }
  JOINT RightUpLeg
  {
    OFFSET -9.1245 -6.6564 -0.0554
    CHANNELS 6 Xposition Yposition Zposition Zrotation Xrotation Yrotation
    JOINT RightLeg
    {
      OFFSET -0.2447 -40.5954 -0.5145
      CHANNELS 6 Xposition Yposition Zposition Zrotation Xrotation Yrotation
      JOINT RightFoot
      {
        OFFSET 0.2447 -42.0479 -2.0602
        CHANNELS 6 Xposition Yposition Zposition Zrotation Xrotation Yrotation
        JOINT RightToeBase
        {
          OFFSET -0.3734 -10.4922 12.6407
          CHANNELS 6 Xposition Yposition Zposition Zrotation Xrotation Yrotation
          End Site
          {
            OFFSET 0 0 9.9925
          }
        }
      }
    }
  }
  JOINT LeftUpLeg
  {
    OFFSET 9.1245 -6.6564 -0.0554
    CHANNELS 6 Xposition Yposition Zposition Zrotation Xrotation Yrotation
    JOINT LeftLeg
    {
      OFFSET 0.2447 -40.5954 -0.517
      CHANNELS 6 Xposition Yposition Zposition Zrotation Xrotation Yrotation
      JOINT LeftFoot
      {
        OFFSET -0.2447 -42.048 -2.0576
        CHANNELS 6 Xposition Yposition Zposition Zrotation Xrotation Yrotation
        JOINT LeftToeBase
        {
          OFFSET 0.3734 -10.4922 12.6407
          CHANNELS 6 Xposition Yposition Zposition Zrotation Xrotation Yrotation
          End Site
          {
            OFFSET 0 0 9.9925
          }
        }
      }
    }
  }
}
MOTION
Frames:	4
Frame Time:	0.0333333
-0.109716 97.1272 0.198905 0.666262 -1.31491 -10.4198 2.22045e-016 9.9235 -1.2273 1.93576 2.05537 1.86341 -0.0001 11.6454 -1.4223 -1.09873 4.03391 4.05482 0.0001 13.3602 -1.6265 -1.1018 3.99288 4.09436 4.44089e-016 15.0325 0.7929 -1.44897 2.85501 0.231335 1.11022e-016 10.3218 3.1424 1.91956 -18.4924 -0.275514 6.1058 9.1104 0.7056 -10.729 -0.705209 5.75478 12.655 -0.2659 -2.6009 -64.8474 11.0067 -24.8157 27.4047 7.10543e-015 0 4.56554e-006 -1.04693e-006 -11.2359 27.6145 0 7.10543e-015 -9.17149 46.3991 0.325155 12.7755 0 -8.88178e-016 0.0159907 1.91375e-006 -0.00193738 3.614 0 -1.77636e-015 -0.0159884 4.9345e-007 0.00192617 3.4598 7.10543e-015 3.55271e-015 -1.76556e-031 -6.36111e-015 -1.59028e-015 3.7888 -2.167 3.0031 6.13176 -1.13777 3.8329 3.6754 -2.122 2.122 0.740419 4.04263 7.89746 3.3944 -1.9597 1.9598 2.53773 -0.509686 1.59812 12.2666 -0.2317 2.8221 -3.18055e-015 0 -1.59028e-015 3.892 -1.42109e-014 -3.55271e-015 -2.65913e-005 -2.72993e-007 2.57844e-006 3.4152 7.10543e-015 -1.77636e-015 6.36111e-015 -6.36111e-015 -0 12.147 0.0099 -2.2166 -3.18055e-015 0 -1.59028e-015 3.6012 -7.10543e-015 -3.55271e-015 -2.88325e-005 -6.67008e-006 3.30797e-006 3.3073 7.10543e-015 -1.77636e-015 9.10717e-007 -1.60299e-006 -1.53845e-006 10.9082 -0.2264 -4.7258 0.509579 0.0180391 4.05428 4.1367 0 -1.77636e-015 -0.509584 0.0180292 -4.05429 2.5948 -7.10543e-015 3.55271e-015 -3.18055e-015 3.18055e-015 -0 -6.1057 9.1105 0.7056 11.7395 -1.66951 -6.74665 -12.655 -0.266 -2.6009 63.2426 -1.0531 20.1078 -27.4047 7.10543e-015 0 -1.76102e-005 4.21616e-006 20.3479 -27.6145 0 7.10543e-015 32.2346 46.6455 -24.8361 -12.7755 0 0 3.18055e-015 0 -1.59028e-015 -3.614 0 0 8.30637e-006 -5.33014e-006 6.423e-006 -3.4598 0 5.32907e-015 3.18055e-015 6.36111e-015 -1.59028e-015 -3.7888 -2.167 3.0031 -6.57625 -1.42765 -3.76934 -3.6754 -2.122 2.122 -0.222507 4.67163 -8.61635 -3.3944 -1.9597 1.9598 -2.09532 -1.27848 0.0916574 -12.2666 -0.2317 2.8221 3.18055e-015 0 -1.59028e-015 -3.892 7.10543e-015 0 1.2818e-005 -6.65719e-006 1.4312e-006 -3.4152 0 3.55271e-015 -4.77083e-015 3.18055e-015 -0 -12.147 0.0099 -2.2166 3.18055e-015 0 -1.59028e-015 -3.6012 0 1.77636e-015 8.30637e-006 -5.33014e-006 6.423e-006 -3.3073 0 0 3.18055e-015 6.36111e-015 -1.59028e-015 -10.9082 -0.2264 -4.7258 3.18055e-015 0 -1.59028e-015 -4.1367 -7.10543e-015 -1.77636e-015 3.68615e-005 -4.98463e-006 -3.04335e-006 -2.5948 -7.10543e-015 7.10543e-015 -1.59028e-015 0 3.18055e-015 -9.1245 -6.6564 -0.0554 -9.85262 -13.4013 -9.70349 -0.2447 -40.5954 -0.5145 -1.21446 24.6105 0.978542 0.2447 -42.0479 -2.0602 7.51106 -8.76822 0.502523 -0.3734 -10.4922 12.6407 2.45666e-007 -0.00368858 4.81135e-006 9.1245 -6.6564 -0.0554 7.72252 -8.28269 6.52567 0.2447 -40.5954 -0.517 1.64972 22.4074 -0.498441 -0.2447 -42.048 -2.0576 -6.87415 -11.9374 -0.527617 0.3734 -10.4922 12.6407 -1.12134e-006 -0.297072 5.76859e-007 
-0.0928797 97.1193 0.157482 0.655819 -1.36322 -10.4597 -2.22045e-016 9.9235 -1.2273 1.93508 2.06696 1.85853 -0.0001 11.6454 -1.4223 -1.09202 4.05727 4.04721 0.0001 13.3602 -1.6265 -1.09508 4.01639 4.08691 -4.44089e-016 15.0325 0.7929 -1.43409 2.86046 0.231719 1.11022e-016 10.3218 3.1424 1.85222 -18.4992 -0.252631 6.1058 9.1104 0.7056 -10.7175 -0.704132 5.75277 12.655 -0.2659 -2.6009 -64.8059 11.0951 -24.8298 27.4047 -7.10543e-015 0 -2.37561e-005 -3.92098e-006 -11.3094 27.6145 0 0 -9.48792 46.2304 0.633214 12.7755 7.10543e-015 2.66454e-015 0.0159907 1.91375e-006 -0.00193738 3.614 0 -1.77636e-015 -0.0159884 4.9345e-007 0.00192617 3.4598 7.10543e-015 -1.77636e-015 6.36111e-015 3.18055e-015 -0 3.7888 -2.167 3.0031 6.13176 -1.13777 3.8329 3.6754 -2.122 2.122 0.740431 4.04263 7.89748 3.3944 -1.9597 1.9598 2.53772 -0.509691 1.59813 12.2666 -0.2317 2.8221 1.27222e-014 3.18055e-015 -1.59028e-015 3.892 -7.10543e-015 0 -2.65913e-005 -2.72993e-007 2.57844e-006 3.4152 0 0 0 0 -0 12.147 0.0099 -2.2166 1.27222e-014 3.18055e-015 -1.59028e-015 3.6012 0 3.55271e-015 -2.88325e-005 -6.67008e-006 3.30797e-006 3.3073 7.10543e-015 3.55271e-015 9.10717e-007 -1.60299e-006 -1.53845e-006 10.9082 -0.2264 -4.7258 0.509579 0.0180391 4.05428 4.1367 0 3.55271e-015 -0.509584 0.0180292 -4.05429 2.5948 -7.10543e-015 1.77636e-015 3.18055e-015 -3.18055e-015 -0 -6.1057 9.1105 0.7056 11.7395 -1.67038 -6.74663 -12.655 -0.266 -2.6009 63.1648 -0.923073 20.0588 -27.4047 0 0 -4.57475e-006 -2.01241e-006 20.5257 -27.6145 0 0 32.2898 46.3451 -24.9441 -12.7755 0 -1.77636e-015 3.18055e-015 3.18055e-015 -0 -3.614 0 1.77636e-015 8.30637e-006 -5.33014e-006 6.423e-006 -3.4598 7.10543e-015 0 -1.59028e-015 -3.18055e-015 -1.59028e-015 -3.7888 -2.167 3.0031 -6.57625 -1.42765 -3.76934 -3.6754 -2.122 2.122 -0.222498 4.67163 -8.61635 -3.3944 -1.9597 1.9598 -2.09532 -1.27849 0.0916546 -12.2666 -0.2317 2.8221 3.18055e-015 3.18055e-015 -0 -3.892 -7.10543e-015 0 1.2818e-005 -6.65719e-006 1.4312e-006 -3.4152 0 1.77636e-015 1.59028e-015 0 3.18055e-015 -12.147 0.0099 -2.2166 3.18055e-015 3.18055e-015 -0 -3.6012 0 -1.77636e-015 8.30637e-006 -5.33014e-006 6.423e-006 -3.3073 7.10543e-015 1.77636e-015 -1.59028e-015 -3.18055e-015 -1.59028e-015 -10.9082 -0.2264 -4.7258 3.18055e-015 3.18055e-015 -0 -4.1367 0 0 3.68615e-005 -4.98463e-006 -3.04335e-006 -2.5948 0 1.77636e-015 1.59028e-015 -6.36111e-015 1.59028e-015 -9.1245 -6.6564 -0.0554 -9.89539 -13.4089 -9.75005 -0.2447 -40.5954 -0.5145 -1.15911 24.6534 0.967129 0.2447 -42.0479 -2.0602 7.4794 -8.74344 0.497877 -0.3734 -10.4922 12.6407 -1.49722e-007 -0.00359442 1.6029e-006 9.1245 -6.6564 -0.0554 7.72923 -8.2668 6.53567 0.2447 -40.5954 -0.517 1.63872 22.4465 -0.501215 -0.2447 -42.048 -2.0576 -6.90271 -11.9418 -0.531047 0.3734 -10.4922 12.6407 5.68085e-006 -0.286872 2.43414e-007 
-0.0659908 97.1133 0.124102 0.653005 -1.40663 -10.5097 0 9.9235 -1.2273 1.95356 2.07716 1.84841 -0.0001 11.6454 -1.4223 -1.09145 4.07736 4.03158 0.0001 13.3602 -1.6265 -1.09452 4.03634 4.07178 0 15.0325 0.7929 -1.42164 2.86103 0.226675 1.11022e-016 10.3218 3.1424 1.79596 -18.4805 -0.262723 6.1058 9.1104 0.7056 -10.7131 -0.703999 5.75289 12.655 -0.2659 -2.6009 -64.758 11.1504 -24.8539 27.4047 0 -3.55271e-015 8.10465e-006 6.21908e-007 -11.3792 27.6145 0 0 -9.56125 46.3451 0.661495 12.7755 0 0 0.0159907 1.91375e-006 -0.00193738 3.614 -7.10543e-015 -1.77636e-015 -0.0159884 4.9345e-007 0.00192617 3.4598 0 3.55271e-015 -3.53113e-031 -6.36111e-015 -3.18055e-015 3.7888 -2.167 3.0031 6.13176 -1.13777 3.8329 3.6754 -2.122 2.122 0.740432 4.04262 7.89748 3.3944 -1.9597 1.9598 2.53773 -0.509695 1.59813 12.2666 -0.2317 2.8221 0 0 -1.59028e-015 3.892 -7.10543e-015 0 -2.65913e-005 -2.72993e-007 2.57844e-006 3.4152 -7.10543e-015 0 9.54166e-015 -3.18055e-015 1.59028e-015 12.147 0.0099 -2.2166 0 0 -1.59028e-015 3.6012 7.10543e-015 -1.77636e-015 -2.88325e-005 -6.67008e-006 3.30797e-006 3.3073 -7.10543e-015 -1.77636e-015 9.10717e-007 -1.60299e-006 -1.53845e-006 10.9082 -0.2264 -4.7258 0.509579 0.0180391 4.05428 4.1367 0 -1.77636e-015 -0.509584 0.0180292 -4.05429 2.5948 -7.10543e-015 0 3.18055e-015 0 -1.59028e-015 -6.1057 9.1105 0.7056 11.7383 -1.68039 -6.76221 -12.655 -0.266 -2.6009 63.1933 -0.899768 20.1182 -27.4047 0 -3.55271e-015 1.33955e-005 5.93605e-006 20.5509 -27.6145 0 7.10543e-015 32.3154 46.2955 -24.9804 -12.7755 -7.10543e-015 5.32907e-015 3.18055e-015 -6.36111e-015 3.18055e-015 -3.614 0 1.77636e-015 8.30637e-006 -5.33014e-006 6.423e-006 -3.4598 7.10543e-015 -3.55271e-015 -0 0 1.59028e-015 -3.7888 -2.167 3.0031 -6.57625 -1.42765 -3.76934 -3.6754 -2.122 2.122 -0.222514 4.67164 -8.61636 -3.3944 -1.9597 1.9598 -2.09531 -1.27848 0.0916615 -12.2666 -0.2317 2.8221 3.18055e-015 -6.36111e-015 3.18055e-015 -3.892 -7.10543e-015 1.77636e-015 1.2818e-005 -6.65719e-006 1.4312e-006 -3.4152 0 3.55271e-015 0 6.36111e-015 -0 -12.147 0.0099 -2.2166 3.18055e-015 -6.36111e-015 3.18055e-015 -3.6012 -7.10543e-015 1.77636e-015 8.30637e-006 -5.33014e-006 6.423e-006 -3.3073 0 -1.77636e-015 -0 0 1.59028e-015 -10.9082 -0.2264 -4.7258 3.18055e-015 -6.36111e-015 3.18055e-015 -4.1367 -7.10543e-015 -3.55271e-015 3.68615e-005 -4.98463e-006 -3.04335e-006 -2.5948 0 -1.77636e-015 -0 -6.36111e-015 -0 -9.1245 -6.6564 -0.0554 -9.9503 -13.4096 -9.80124 -0.2447 -40.5954 -0.5145 -1.12373 24.6741 0.960984 0.2447 -42.0479 -2.0602 7.47244 -8.70809 0.495216 -0.3734 -10.4922 12.6407 1.50311e-007 -0.00356724 4.80558e-006 9.1245 -6.6564 -0.0554 7.71969 -8.26276 6.53684 0.2447 -40.5954 -0.517 1.62183 22.5031 -0.494416 -0.2447 -42.048 -2.0576 -6.88268 -11.9598 -0.530172 0.3734 -10.4922 12.6407 4.71868e-007 -0.292453 -1.224e-006 
-0.0405907 97.1065 0.087289 0.666516 -1.4494 -10.4858 0 9.9235 -1.2273 1.97681 2.08831 1.82162 -0.0001 11.6454 -1.4223 -1.09401 4.10012 3.98223 0.0001 13.3602 -1.6265 -1.0971 4.05922 4.02304 0 15.0325 0.7929 -1.43067 2.85135 0.241609 -5.55112e-017 10.3218 3.1424 1.82245 -18.4643 -0.19402 6.1058 9.1104 0.7056 -10.7043 -0.703456 5.75224 12.655 -0.2659 -2.6009 -64.7343 11.1626 -24.8945 27.4047 0 3.55271e-015 1.92966e-006 3.6996e-008 -11.422 27.6145 7.10543e-015 -1.42109e-014 -9.44022 46.5791 0.478623 12.7755 -7.10543e-015 0 0.0159907 1.91375e-006 -0.00193738 3.614 -7.10543e-015 0 -0.0159884 4.9345e-007 0.00192617 3.4598 -7.10543e-015 0 -1.76556e-031 -3.18055e-015 -3.18055e-015 3.7888 -2.167 3.0031 6.13176 -1.13777 3.8329 3.6754 -2.122 2.122 0.740449 4.04264 7.89749 3.3944 -1.9597 1.9598 2.53772 -0.509693 1.59811 12.2666 -0.2317 2.8221 -0 0 3.18055e-015 3.892 7.10543e-015 0 -2.65913e-005 -2.72993e-007 2.57844e-006 3.4152 0 1.77636e-015 -3.18055e-015 3.18055e-015 -3.18055e-015 12.147 0.0099 -2.2166 -0 0 3.18055e-015 3.6012 -7.10543e-015 1.77636e-015 -2.88325e-005 -6.67008e-006 3.30797e-006 3.3073 0 -1.77636e-015 9.10717e-007 -1.60299e-006 -1.53845e-006 10.9082 -0.2264 -4.7258 0.509579 0.0180391 4.05428 4.1367 0 0 -0.509584 0.0180292 -4.05429 2.5948 7.10543e-015 3.55271e-015 6.36111e-015 -3.18055e-015 -0 -6.1057 9.1105 0.7056 11.7364 -1.69779 -6.78777 -12.655 -0.266 -2.6009 63.1975 -0.820283 20.0202 -27.4047 -7.10543e-015 0 2.68125e-005 2.42368e-006 20.812 -27.6145 0 0 32.3726 46.302 -25.1573 -12.7755 0 1.77636e-015 1.59028e-015 0 1.59028e-015 -3.614 0 0 8.30637e-006 -5.33014e-006 6.423e-006 -3.4598 7.10543e-015 -5.32907e-015 1.59028e-015 -3.18055e-015 -0 -3.7888 -2.167 3.0031 -6.57625 -1.42765 -3.76934 -3.6754 -2.122 2.122 -0.222498 4.67163 -8.61634 -3.3944 -1.9597 1.9598 -2.09532 -1.27849 0.091654 -12.2666 -0.2317 2.8221 1.59028e-015 0 1.59028e-015 -3.892 -7.10543e-015 3.55271e-015 1.2818e-005 -6.65719e-006 1.4312e-006 -3.4152 0 0 4.77083e-015 -6.36111e-015 -1.59028e-015 -12.147 0.0099 -2.2166 1.59028e-015 0 1.59028e-015 -3.6012 0 -1.77636e-015 8.30637e-006 -5.33014e-006 6.423e-006 -3.3073 0 0 1.59028e-015 -3.18055e-015 -0 -10.9082 -0.2264 -4.7258 1.59028e-015 0 1.59028e-015 -4.1367 -7.10543e-015 3.55271e-015 3.68615e-005 -4.98463e-006 -3.04335e-006 -2.5948 0 0 -1.59028e-015 -9.54166e-015 1.59028e-015 -9.1245 -6.6564 -0.0554 -10.0186 -13.4142 -9.86507 -0.2447 -40.5954 -0.5145 -1.08351 24.7239 0.949676 0.2447 -42.0479 -2.0602 7.45687 -8.69844 0.494963 -0.3734 -10.4922 12.6407 2.3998e-007 -0.00360862 1.60142e-006 9.1245 -6.6564 -0.0554 7.70352 -8.32101 6.53532 0.2447 -40.5954 -0.517 1.59365 22.6178 -0.473819 -0.2447 -42.048 -2.0576 -6.78329 -11.9748 -0.520547 0.3734 -10.4922 12.6407 1.93784e-007 -0.325388 -7.64304e-007 
